<svg width="20" height="20" viewBox="0 0 20 20" fill="none" xmlns="http://www.w3.org/2000/svg">
<path d="M18.3333 9.99996H16.2666C15.9024 9.99918 15.548 10.1177 15.2576 10.3374C14.9671 10.5571 14.7566 10.866 14.6583 11.2166L12.7 18.1833C12.6874 18.2265 12.661 18.2646 12.625 18.2916C12.5889 18.3186 12.5451 18.3333 12.5 18.3333C12.4549 18.3333 12.411 18.3186 12.375 18.2916C12.3389 18.2646 12.3126 18.2265 12.3 18.1833L7.7 1.81665C7.68737 1.77338 7.66106 1.73536 7.625 1.70832C7.58894 1.68127 7.54507 1.66665 7.5 1.66665C7.45492 1.66665 7.41106 1.68127 7.375 1.70832C7.33894 1.73536 7.31262 1.77338 7.3 1.81665L5.34167 8.7833C5.24372 9.13259 5.03449 9.44039 4.74573 9.65997C4.45696 9.87955 4.10444 9.99892 3.74168 9.99996H1.66668" stroke="#09090B" stroke-width="1.66667" stroke-linecap="round" stroke-linejoin="round"/>
</svg>
