<svg width="32" height="32" viewBox="0 0 32 32" fill="none" xmlns="http://www.w3.org/2000/svg">
<g filter="url(#filter0_d_4_313)">
<path d="M3.99999 16C3.99999 9.37257 9.37257 3.99999 16 3.99999C22.6274 3.99999 27.9999 9.37257 27.9999 16C27.9999 22.6274 22.6274 27.9999 16 27.9999C9.37257 27.9999 3.99999 22.6274 3.99999 16Z" fill="#00BC7D" fill-opacity="0.1" shape-rendering="crispEdges"/>
<g clip-path="url(#clip0_4_313)">
<path d="M16 21.8333C19.2216 21.8333 21.8333 19.2216 21.8333 16C21.8333 12.7783 19.2216 10.1667 16 10.1667C12.7783 10.1667 10.1667 12.7783 10.1667 16C10.1667 19.2216 12.7783 21.8333 16 21.8333Z" stroke="#00BC7D" stroke-width="1.16667" stroke-linecap="round" stroke-linejoin="round"/>
<path d="M14.25 15.9999L15.4167 17.1666L17.75 14.8333" stroke="#00BC7D" stroke-width="1.16667" stroke-linecap="round" stroke-linejoin="round"/>
</g>
</g>
<defs>
<filter id="filter0_d_4_313" x="0" y="0" width="32" height="31.9999" filterUnits="userSpaceOnUse" color-interpolation-filters="sRGB">
<feFlood flood-opacity="0" result="BackgroundImageFix"/>
<feColorMatrix in="SourceAlpha" type="matrix" values="0 0 0 0 0 0 0 0 0 0 0 0 0 0 0 0 0 0 127 0" result="hardAlpha"/>
<feMorphology radius="4" operator="dilate" in="SourceAlpha" result="effect1_dropShadow_4_313"/>
<feOffset/>
<feComposite in2="hardAlpha" operator="out"/>
<feColorMatrix type="matrix" values="0 0 0 0 1 0 0 0 0 1 0 0 0 0 1 0 0 0 1 0"/>
<feBlend mode="normal" in2="BackgroundImageFix" result="effect1_dropShadow_4_313"/>
<feBlend mode="normal" in="SourceGraphic" in2="effect1_dropShadow_4_313" result="shape"/>
</filter>
<clipPath id="clip0_4_313">
<rect width="14" height="14" fill="white" transform="translate(8.99998 8.99998)"/>
</clipPath>
</defs>
</svg>
