<svg width="32" height="32" viewBox="0 0 32 32" fill="none" xmlns="http://www.w3.org/2000/svg">
<g filter="url(#filter0_d_4_336)">
<path d="M3.99999 16C3.99999 9.37257 9.37257 3.99999 16 3.99999C22.6274 3.99999 27.9999 9.37257 27.9999 16C27.9999 22.6274 22.6274 27.9999 16 27.9999C9.37257 27.9999 3.99999 22.6274 3.99999 16Z" fill="#615FFF" fill-opacity="0.1" shape-rendering="crispEdges"/>
<path d="M21.25 17.75V20.0833C21.25 20.3927 21.127 20.6895 20.9083 20.9083C20.6895 21.127 20.3927 21.25 20.0833 21.25H11.9166C11.6072 21.25 11.3105 21.127 11.0917 20.9083C10.8729 20.6895 10.75 20.3927 10.75 20.0833V17.75" stroke="#615FFF" stroke-width="1.16667" stroke-linecap="round" stroke-linejoin="round"/>
<path d="M18.9166 13.6666L15.9999 10.75L13.0833 13.6666" stroke="#615FFF" stroke-width="1.16667" stroke-linecap="round" stroke-linejoin="round"/>
<path d="M16 10.75V17.75" stroke="#615FFF" stroke-width="1.16667" stroke-linecap="round" stroke-linejoin="round"/>
</g>
<defs>
<filter id="filter0_d_4_336" x="0" y="0" width="32" height="31.9999" filterUnits="userSpaceOnUse" color-interpolation-filters="sRGB">
<feFlood flood-opacity="0" result="BackgroundImageFix"/>
<feColorMatrix in="SourceAlpha" type="matrix" values="0 0 0 0 0 0 0 0 0 0 0 0 0 0 0 0 0 0 127 0" result="hardAlpha"/>
<feMorphology radius="4" operator="dilate" in="SourceAlpha" result="effect1_dropShadow_4_336"/>
<feOffset/>
<feComposite in2="hardAlpha" operator="out"/>
<feColorMatrix type="matrix" values="0 0 0 0 1 0 0 0 0 1 0 0 0 0 1 0 0 0 1 0"/>
<feBlend mode="normal" in2="BackgroundImageFix" result="effect1_dropShadow_4_336"/>
<feBlend mode="normal" in="SourceGraphic" in2="effect1_dropShadow_4_336" result="shape"/>
</filter>
</defs>
</svg>
