<svg width="44" height="44" viewBox="0 0 44 44" fill="none" xmlns="http://www.w3.org/2000/svg">
<path d="M0 10C0 4.47715 4.47715 0 10 0H34C39.5228 0 44 4.47715 44 10V34C44 39.5228 39.5228 44 34 44H10C4.47715 44 0 39.5228 0 34V10Z" fill="#F4F4F5"/>
<path d="M28.6666 22.8333C28.6666 27 25.75 29.0833 22.2833 30.2917C22.1018 30.3532 21.9046 30.3502 21.725 30.2833C18.25 29.0833 15.3333 27 15.3333 22.8333V17C15.3333 16.779 15.4211 16.567 15.5774 16.4107C15.7337 16.2545 15.9456 16.1667 16.1666 16.1667C17.8333 16.1667 19.9166 15.1667 21.3666 13.9C21.5432 13.7492 21.7678 13.6663 22 13.6663C22.2322 13.6663 22.4568 13.7492 22.6333 13.9C24.0916 15.175 26.1666 16.1667 27.8333 16.1667C28.0543 16.1667 28.2663 16.2545 28.4226 16.4107C28.5788 16.567 28.6666 16.779 28.6666 17V22.8333Z" stroke="#52525C" stroke-width="1.66667" stroke-linecap="round" stroke-linejoin="round"/>
<path d="M22 18.6667V22" stroke="#52525C" stroke-width="1.66667" stroke-linecap="round" stroke-linejoin="round"/>
<path d="M22 25.3333H22.0083" stroke="#52525C" stroke-width="1.66667" stroke-linecap="round" stroke-linejoin="round"/>
</svg>
