<svg width="44" height="44" viewBox="0 0 44 44" fill="none" xmlns="http://www.w3.org/2000/svg">
<path d="M0 10C0 4.47715 4.47715 0 10 0H34C39.5228 0 44 4.47715 44 10V34C44 39.5228 39.5228 44 34 44H10C4.47715 44 0 39.5228 0 34V10Z" fill="#F4F4F5"/>
<path d="M22 16.1667C22.001 15.8334 21.9353 15.5032 21.8068 15.1957C21.6783 14.8881 21.4897 14.6094 21.2519 14.3758C21.0141 14.1422 20.732 13.9586 20.4222 13.8356C20.1124 13.7127 19.7811 13.6529 19.4479 13.6598C19.1147 13.6668 18.7862 13.7403 18.4818 13.8761C18.1774 14.0118 17.9032 14.2071 17.6753 14.4503C17.4475 14.6936 17.2706 14.98 17.155 15.2926C17.0395 15.6053 16.9876 15.9379 17.0025 16.2708C16.5127 16.3968 16.0579 16.6325 15.6727 16.9603C15.2875 17.288 14.9819 17.6991 14.779 18.1624C14.5762 18.6257 14.4815 19.1291 14.502 19.6344C14.5225 20.1398 14.6578 20.6338 14.8975 21.0792C14.476 21.4216 14.1445 21.8619 13.9319 22.3616C13.7194 22.8614 13.6321 23.4055 13.6778 23.9467C13.7235 24.4878 13.9007 25.0096 14.194 25.4667C14.4873 25.9237 14.8879 26.3022 15.3608 26.5692C15.3024 27.021 15.3373 27.4801 15.4632 27.9179C15.5892 28.3558 15.8036 28.7632 16.0931 29.115C16.3827 29.4667 16.7413 29.7554 17.1468 29.9631C17.5523 30.1709 17.9961 30.2933 18.4508 30.3228C18.9055 30.3523 19.3614 30.2883 19.7903 30.1347C20.2193 29.9811 20.6122 29.7412 20.9448 29.4298C21.2774 29.1184 21.5426 28.7421 21.7241 28.3242C21.9056 27.9063 21.9995 27.4556 22 27V16.1667Z" stroke="#52525C" stroke-width="1.66667" stroke-linecap="round" stroke-linejoin="round"/>
<path d="M19.5 22.8333C20.1996 22.5872 20.8106 22.1392 21.2556 21.5458C21.7006 20.9525 21.9596 20.2406 22 19.5" stroke="#52525C" stroke-width="1.66667" stroke-linecap="round" stroke-linejoin="round"/>
<path d="M17.0025 16.2708C17.019 16.674 17.1328 17.0671 17.3342 17.4167" stroke="#52525C" stroke-width="1.66667" stroke-linecap="round" stroke-linejoin="round"/>
<path d="M14.8975 21.08C15.0499 20.9558 15.2131 20.8454 15.385 20.75" stroke="#52525C" stroke-width="1.66667" stroke-linecap="round" stroke-linejoin="round"/>
<path d="M17 27C16.4257 27.0003 15.8611 26.8522 15.3608 26.57" stroke="#52525C" stroke-width="1.66667" stroke-linecap="round" stroke-linejoin="round"/>
<path d="M22 22.8333H25.3333" stroke="#52525C" stroke-width="1.66667" stroke-linecap="round" stroke-linejoin="round"/>
<path d="M22 27H27C27.442 27 27.866 27.1756 28.1785 27.4882C28.4911 27.8007 28.6667 28.2246 28.6667 28.6667V29.5" stroke="#52525C" stroke-width="1.66667" stroke-linecap="round" stroke-linejoin="round"/>
<path d="M22 18.6667H28.6667" stroke="#52525C" stroke-width="1.66667" stroke-linecap="round" stroke-linejoin="round"/>
<path d="M25.3333 18.6667V16.1667C25.3333 15.7246 25.5089 15.3007 25.8215 14.9882C26.1341 14.6756 26.558 14.5 27 14.5" stroke="#52525C" stroke-width="1.66667" stroke-linecap="round" stroke-linejoin="round"/>
<path d="M25.3333 23.25C25.5634 23.25 25.75 23.0634 25.75 22.8333C25.75 22.6032 25.5634 22.4167 25.3333 22.4167C25.1032 22.4167 24.9167 22.6032 24.9167 22.8333C24.9167 23.0634 25.1032 23.25 25.3333 23.25Z" stroke="#52525C" stroke-width="1.66667" stroke-linecap="round" stroke-linejoin="round"/>
<path d="M27 14.9167C27.2301 14.9167 27.4167 14.7301 27.4167 14.5C27.4167 14.2699 27.2301 14.0833 27 14.0833C26.7699 14.0833 26.5833 14.2699 26.5833 14.5C26.5833 14.7301 26.7699 14.9167 27 14.9167Z" stroke="#52525C" stroke-width="1.66667" stroke-linecap="round" stroke-linejoin="round"/>
<path d="M28.6667 29.9167C28.8968 29.9167 29.0833 29.7301 29.0833 29.5C29.0833 29.2699 28.8968 29.0833 28.6667 29.0833C28.4365 29.0833 28.25 29.2699 28.25 29.5C28.25 29.7301 28.4365 29.9167 28.6667 29.9167Z" stroke="#52525C" stroke-width="1.66667" stroke-linecap="round" stroke-linejoin="round"/>
<path d="M28.6667 19.0833C28.8968 19.0833 29.0833 18.8968 29.0833 18.6667C29.0833 18.4365 28.8968 18.25 28.6667 18.25C28.4365 18.25 28.25 18.4365 28.25 18.6667C28.25 18.8968 28.4365 19.0833 28.6667 19.0833Z" stroke="#52525C" stroke-width="1.66667" stroke-linecap="round" stroke-linejoin="round"/>
</svg>
