<svg width="44" height="44" viewBox="0 0 44 44" fill="none" xmlns="http://www.w3.org/2000/svg">
<path d="M0 10C0 4.47715 4.47715 0 10 0H34C39.5228 0 44 4.47715 44 10V34C44 39.5228 39.5228 44 34 44H10C4.47715 44 0 39.5228 0 34V10Z" fill="#F4F4F5"/>
<path d="M30.1083 27L23.4416 15.3333C23.2962 15.0769 23.0854 14.8635 22.8307 14.7151C22.576 14.5666 22.2864 14.4884 21.9916 14.4884C21.6968 14.4884 21.4072 14.5666 21.1525 14.7151C20.8978 14.8635 20.687 15.0769 20.5416 15.3333L13.8749 27C13.728 27.2545 13.651 27.5433 13.6516 27.8371C13.6523 28.1309 13.7306 28.4194 13.8786 28.6732C14.0267 28.927 14.2392 29.1372 14.4947 29.2824C14.7501 29.4276 15.0394 29.5027 15.3333 29.5H28.6666C28.959 29.4997 29.2462 29.4225 29.4993 29.2761C29.7525 29.1297 29.9626 28.9193 30.1087 28.6659C30.2548 28.4126 30.3316 28.1253 30.3316 27.8329C30.3315 27.5405 30.2545 27.2533 30.1083 27Z" stroke="#52525C" stroke-width="1.66667" stroke-linecap="round" stroke-linejoin="round"/>
<path d="M22 19.5V22.8333" stroke="#52525C" stroke-width="1.66667" stroke-linecap="round" stroke-linejoin="round"/>
<path d="M22 26.1667H22.0083" stroke="#52525C" stroke-width="1.66667" stroke-linecap="round" stroke-linejoin="round"/>
</svg>
