<svg width="44" height="44" viewBox="0 0 44 44" fill="none" xmlns="http://www.w3.org/2000/svg">
<path d="M0 10C0 4.47715 4.47715 0 10 0H34C39.5228 0 44 4.47715 44 10V34C44 39.5228 39.5228 44 34 44H10C4.47715 44 0 39.5228 0 34V10Z" fill="#F4F4F5"/>
<path d="M22 18.6667C26.1421 18.6667 29.5 17.5474 29.5 16.1667C29.5 14.7859 26.1421 13.6667 22 13.6667C17.8579 13.6667 14.5 14.7859 14.5 16.1667C14.5 17.5474 17.8579 18.6667 22 18.6667Z" stroke="#52525C" stroke-width="1.66667" stroke-linecap="round" stroke-linejoin="round"/>
<path d="M14.5 16.1667V27.8333C14.5 28.4964 15.2902 29.1322 16.6967 29.6011C18.1032 30.0699 20.0109 30.3333 22 30.3333C23.9891 30.3333 25.8968 30.0699 27.3033 29.6011C28.7098 29.1322 29.5 28.4964 29.5 27.8333V16.1667" stroke="#52525C" stroke-width="1.66667" stroke-linecap="round" stroke-linejoin="round"/>
<path d="M14.5 22C14.5 22.663 15.2902 23.2989 16.6967 23.7678C18.1032 24.2366 20.0109 24.5 22 24.5C23.9891 24.5 25.8968 24.2366 27.3033 23.7678C28.7098 23.2989 29.5 22.663 29.5 22" stroke="#52525C" stroke-width="1.66667" stroke-linecap="round" stroke-linejoin="round"/>
</svg>
