<svg width="84" height="36" viewBox="0 0 84 36" fill="none" xmlns="http://www.w3.org/2000/svg">
<path d="M52 18C52 9.16344 59.1634 2 68 2C76.8366 2 84 9.16344 84 18C84 26.8366 76.8366 34 68 34C59.1634 34 52 26.8366 52 18Z" fill="url(#paint0_linear_4_76)"/>
<path d="M16.5566 25.5C16.7029 25.7533 16.9133 25.9637 17.1667 26.11C17.42 26.2563 17.7074 26.3333 18 26.3333C18.2925 26.3333 18.5799 26.2563 18.8333 26.11C19.0866 25.9637 19.297 25.7533 19.4433 25.5" stroke="#52525C" stroke-width="1.66667" stroke-linecap="round" stroke-linejoin="round"/>
<path d="M10.7183 20.7717C10.6095 20.891 10.5376 21.0394 10.5115 21.1988C10.4855 21.3582 10.5063 21.5217 10.5714 21.6695C10.6366 21.8173 10.7433 21.943 10.8785 22.0312C11.0138 22.1195 11.1718 22.1665 11.3333 22.1667H24.6667C24.8282 22.1667 24.9862 22.1199 25.1216 22.0318C25.2569 21.9437 25.3637 21.8181 25.4291 21.6704C25.4944 21.5227 25.5154 21.3592 25.4895 21.1998C25.4637 21.0404 25.392 20.8919 25.2833 20.7725C24.175 19.63 23 18.4158 23 14.6667C23 13.3406 22.4732 12.0688 21.5355 11.1311C20.5979 10.1934 19.3261 9.66666 18 9.66666C16.6739 9.66666 15.4021 10.1934 14.4645 11.1311C13.5268 12.0688 13 13.3406 13 14.6667C13 18.4158 11.8242 19.63 10.7183 20.7717Z" stroke="#52525C" stroke-width="1.66667" stroke-linecap="round" stroke-linejoin="round"/>
<mask id="path-5-inside-1_4_76" fill="white">
<path d="M22 10C22 7.79086 23.7909 6 26 6C28.2091 6 30 7.79086 30 10C30 12.2091 28.2091 14 26 14C23.7909 14 22 12.2091 22 10Z"/>
</mask>
<path d="M22 10C22 7.79086 23.7909 6 26 6C28.2091 6 30 7.79086 30 10C30 12.2091 28.2091 14 26 14C23.7909 14 22 12.2091 22 10Z" fill="#FB2C36"/>
<path d="M22 10M30 10M30 10M22 10M26 6M30 10M26 14M22 10M26 14V12C24.8954 12 24 11.1046 24 10H22H20C20 13.3137 22.6863 16 26 16V14ZM30 10H28C28 11.1046 27.1046 12 26 12V14V16C29.3137 16 32 13.3137 32 10H30ZM26 6V8C27.1046 8 28 8.89543 28 10H30H32C32 6.68629 29.3137 4 26 4V6ZM26 6V4C22.6863 4 20 6.68629 20 10H22H24C24 8.89543 24.8954 8 26 8V6Z" fill="white" mask="url(#path-5-inside-1_4_76)"/>
<defs>
<linearGradient id="paint0_linear_4_76" x1="52" y1="34" x2="84" y2="2" gradientUnits="userSpaceOnUse">
<stop stop-color="#615FFF"/>
<stop offset="1" stop-color="#AD46FF"/>
</linearGradient>
</defs>
</svg>
